<svg xmlns="http://www.w3.org/2000/svg" version="1.1" xmlns:xlink="http://www.w3.org/1999/xlink" xmlns:svgjs="http://svgjs.dev/svgjs" width="1000" height="879" viewBox="0 0 1000 879"><g transform="matrix(1,0,0,1,-0.8403965273635094,0.35587091133953663)"><svg viewBox="0 0 281 247" data-background-color="#ffffff" preserveAspectRatio="xMidYMid meet" height="879" width="1000" xmlns="http://www.w3.org/2000/svg" xmlns:xlink="http://www.w3.org/1999/xlink"><g id="tight-bounds" transform="matrix(1,0,0,1,0.23624180853724397,-0.10000013094523297)"><svg viewBox="0 0 280.52760676727365 247.2" height="247.2" width="280.52760676727365"><g><svg viewBox="0 0 348.2704595347076 306.8947779831245" height="247.2" width="280.52760676727365"><g><svg viewBox="0 0 348.2704595347076 306.8947779831245" height="306.8947779831245" width="348.2704595347076"><g id="textblocktransform"><svg viewBox="0 0 348.2704595347076 306.8947779831245" height="306.8947779831245" width="348.2704595347076" id="textblock"><g><svg viewBox="0 0 348.2704595347076 245.672304" height="245.672304" width="348.2704595347076"><path d="M347.455 52.692C345.818 27.191 341.151 20.102 341.151 20.102 326.825-6.164 308.946-0.502 292.884 3.272 264.526 3.425 236.283 9.035 207.99 12.044 148.606 12.503 88.713 4.955 29.624 23.57 24.073 29.282-5.758 24.692 0.987 55.956 2.756 68.961 9.206 83.395 9.01 95.329 9.894 97.42 11.122 92.626 11.646 95.635 13.48 103.744 16.476 99.919 18.932 104.713 15.51 117.515 17.966 128.174 20.307 139.343 16.181 142.25 10.893 140.873 8.519 150.513 8.273 157.5 6.947 156.174 5.49 155.868 4.426 155.664 2.281 156.429 2.641 158.622 3.869 166.119-1.403 170.454 1.904 177.798-0.372 185.755 3.476 192.64 2.952 201.259 2.887 202.993 3.247 204.472 3.82 204.88 6.358 207.073 2.657 211.357 3.05 215.998 29.083 247.721 57.327 225.791 83.998 240.377 90.924 230.177 85.717 243.998 88.484 241.856 90.645 239.357 92.217 249.71 94.657 243.845 95.033 242.162 94.46 238.184 95.803 238.949 96.507 239.357 97.129 239.255 97.227 236.909 97.375 233.39 96.081 235.583 95.737 233.747 99.454 224.465 98.537 246.548 102.025 245.63 101.861 242.927 100.846 239.051 102.925 239.561 104.988 235.685 105.054 232.472 106.887 241.193 106.953 243.08 107.28 244.406 107.804 245.324 113.535 235.838 119.233 248.69 125.242 244.406 128.925 239.714 132.462 246.956 136.195 245.171 137.505 243.743 138.831 241.193 140.092 245.477 155.531 246.395 171.986 242.57 186.624 245.63 225.739 239.918 267.539 247.976 308.782 240.428 318.508 237.521 328.61 233.39 338.09 230.075 338.09 230.075 345.769 220.997 345.769 180.196S347.406 144.495 347.652 112.007C347.897 79.519 349.043 78.193 347.406 52.692Z" opacity="1" fill="#ec9131" data-fill-palette-color="tertiary"></path><g transform="matrix(1,0,0,1,55.76831999999999,26.068561146666667)"><svg width="236.7338195347076" viewBox="1.9300000667572021 -35.77000045776367 43.75 35.77000045776367" height="193.53518170666666" data-palette-color="#ffffff"><path d="M28.61 0L25.22-9.72 9.79-9.72 6.45 0 1.93 0 15.23-35.77 20.31-35.77 33.64 0 28.61 0ZM11.08-13.45L23.88-13.45 19.14-27.42 17.75-32.4 17.26-32.4 15.87-27.42 11.08-13.45ZM45.68-35.77L45.68 0 40.89 0 40.89-35.77 45.68-35.77Z" opacity="1" transform="matrix(1,0,0,1,0,0)" fill="#ffffff" class="wordmark-text-0" data-fill-palette-color="quaternary" id="text-0"></path></svg></g></svg></g><g transform="matrix(1,0,0,1,66.51965777112915,291.361315556583)"><svg viewBox="0 0 215.2311439924493 15.533462426541483" height="15.533462426541483" width="215.2311439924493"><g transform="matrix(1,0,0,1,0,0)"><svg width="215.2311439924493" viewBox="0.6500000357627869 -35.900001525878906 504.9900207519531 36.45000076293945" height="15.533462426541483" data-palette-color="#79c141"><path d="M11.3-31.15L0.65-31.15 0.65-34.6 25.65-34.6 25.65-31.15 15.1-31.15 15.1 0 11.3 0 11.3-31.15ZM33.65-20.65L33.65 0 29.9 0 29.9-35.9 33.65-35.9 33.65-23.6Q37.65-25.5 41.35-25.5L41.35-25.5Q46.35-25.5 48.07-22.8 49.8-20.1 49.8-13.2L49.8-13.2 49.8 0 46.05 0 46.05-13.1Q46.05-18.3 45.02-20.23 44-22.15 40.7-22.15L40.7-22.15Q37.55-22.15 34.6-21L34.6-21 33.65-20.65ZM73.75-3.1L73.75-3.1 75.2-3.25 75.3-0.3Q69.59 0.5 65.55 0.5L65.55 0.5Q60.15 0.5 57.9-2.63 55.65-5.75 55.65-12.35L55.65-12.35Q55.65-25.5 66.09-25.5L66.09-25.5Q71.15-25.5 73.65-22.68 76.15-19.85 76.15-13.8L76.15-13.8 75.95-10.95 59.45-10.95Q59.45-6.8 60.95-4.8 62.45-2.8 66.17-2.8 69.9-2.8 73.75-3.1ZM59.4-13.95L72.4-13.95Q72.4-18.55 70.92-20.45 69.45-22.35 66.12-22.35 62.8-22.35 61.12-20.35 59.45-18.35 59.4-13.95L59.4-13.95ZM104.04-25.5L104.04-25.5Q109.09-25.5 111.12-22.63 113.14-19.75 113.14-12.55 113.14-5.35 110.62-2.43 108.09 0.5 101.34 0.5L101.34 0.5Q99.24 0.5 94.39 0.1L94.39 0.1 92.99-0.05 92.99-35.9 96.69-35.9 96.69-23.75Q100.49-25.5 104.04-25.5ZM101.29-2.85L101.29-2.85Q106.19-2.85 107.77-5.08 109.34-7.3 109.34-12.6 109.34-17.9 108.09-20.03 106.84-22.15 103.64-22.15L103.64-22.15Q100.74-22.15 97.69-21.05L97.69-21.05 96.69-20.7 96.69-3.1Q99.94-2.85 101.29-2.85ZM136.29-3.1L136.29-3.1 137.74-3.25 137.84-0.3Q132.14 0.5 128.09 0.5L128.09 0.5Q122.69 0.5 120.44-2.63 118.19-5.75 118.19-12.35L118.19-12.35Q118.19-25.5 128.64-25.5L128.64-25.5Q133.69-25.5 136.19-22.68 138.69-19.85 138.69-13.8L138.69-13.8 138.49-10.95 121.99-10.95Q121.99-6.8 123.49-4.8 124.99-2.8 128.71-2.8 132.44-2.8 136.29-3.1ZM121.94-13.95L134.94-13.95Q134.94-18.55 133.46-20.45 131.99-22.35 128.66-22.35 125.34-22.35 123.66-20.35 121.99-18.35 121.94-13.95L121.94-13.95ZM152.38-22.15L152.38-22.15Q146.94-22.15 146.94-18.35L146.94-18.35Q146.94-16.6 148.19-15.88 149.44-15.15 153.88-14.38 158.34-13.6 160.19-12.2 162.03-10.8 162.03-6.95 162.03-3.1 159.56-1.3 157.09 0.5 152.34 0.5L152.34 0.5Q149.24 0.5 145.03-0.2L145.03-0.2 143.53-0.45 143.74-3.7Q149.44-2.85 152.34-2.85 155.24-2.85 156.76-3.78 158.28-4.7 158.28-6.88 158.28-9.05 156.99-9.83 155.69-10.6 151.28-11.3 146.88-12 145.03-13.35 143.19-14.7 143.19-18.35 143.19-22 145.76-23.75 148.34-25.5 152.19-25.5L152.19-25.5Q155.24-25.5 159.84-24.8L159.84-24.8 161.24-24.55 161.13-21.35Q155.59-22.15 152.38-22.15ZM180.73-25L180.73-21.75 172.78-21.75 172.78-9.8Q172.78-5.5 173.41-4.15 174.03-2.8 176.38-2.8L176.38-2.8 180.83-3.1 181.08 0Q177.73 0.55 175.98 0.55L175.98 0.55Q172.08 0.55 170.58-1.35 169.08-3.25 169.08-8.6L169.08-8.6 169.08-21.75 165.53-21.75 165.53-25 169.08-25 169.08-32.65 172.78-32.65 172.78-25 180.73-25ZM200.08 0L196.33 0 196.33-25 200.08-25 200.08 0ZM200.08-30.65L196.33-30.65 196.33-35 200.08-35 200.08-30.65ZM211.03-20.3L211.03 0 207.28 0 207.28-25 210.98-25 210.98-23.25Q215.03-25.5 218.73-25.5L218.73-25.5Q223.73-25.5 225.45-22.8 227.18-20.1 227.18-13.2L227.18-13.2 227.18 0 223.48 0 223.48-13.1Q223.48-18.3 222.45-20.23 221.43-22.15 218.08-22.15L218.08-22.15Q216.48-22.15 214.7-21.68 212.93-21.2 211.98-20.75L211.98-20.75 211.03-20.3ZM258.07-25L258.07-21.75 250.12-21.75 250.12-9.8Q250.12-5.5 250.75-4.15 251.37-2.8 253.72-2.8L253.72-2.8 258.17-3.1 258.42 0Q255.07 0.55 253.32 0.55L253.32 0.55Q249.42 0.55 247.92-1.35 246.42-3.25 246.42-8.6L246.42-8.6 246.42-21.75 242.87-21.75 242.87-25 246.42-25 246.42-32.65 250.12-32.65 250.12-25 258.07-25ZM266.42-20.65L266.42 0 262.67 0 262.67-35.9 266.42-35.9 266.42-23.6Q270.42-25.5 274.12-25.5L274.12-25.5Q279.12-25.5 280.84-22.8 282.57-20.1 282.57-13.2L282.57-13.2 282.57 0 278.82 0 278.82-13.1Q278.82-18.3 277.79-20.23 276.77-22.15 273.47-22.15L273.47-22.15Q270.32-22.15 267.37-21L267.37-21 266.42-20.65ZM306.52-3.1L306.52-3.1 307.97-3.25 308.06-0.3Q302.37 0.5 298.31 0.5L298.31 0.5Q292.92 0.5 290.67-2.63 288.42-5.75 288.42-12.35L288.42-12.35Q288.42-25.5 298.87-25.5L298.87-25.5Q303.92-25.5 306.42-22.68 308.92-19.85 308.92-13.8L308.92-13.8 308.72-10.95 292.22-10.95Q292.22-6.8 293.72-4.8 295.22-2.8 298.94-2.8 302.67-2.8 306.52-3.1ZM292.17-13.95L305.17-13.95Q305.17-18.55 303.69-20.45 302.22-22.35 298.89-22.35 295.56-22.35 293.89-20.35 292.22-18.35 292.17-13.95L292.17-13.95ZM336.81-25.5L336.81-25.5Q341.86-25.5 343.89-22.63 345.91-19.75 345.91-12.55 345.91-5.35 343.39-2.43 340.86 0.5 334.11 0.5L334.11 0.5Q332.01 0.5 327.16 0.1L327.16 0.1 325.76-0.05 325.76-35.9 329.46-35.9 329.46-23.75Q333.26-25.5 336.81-25.5ZM334.06-2.85L334.06-2.85Q338.96-2.85 340.54-5.08 342.11-7.3 342.11-12.6 342.11-17.9 340.86-20.03 339.61-22.15 336.41-22.15L336.41-22.15Q333.51-22.15 330.46-21.05L330.46-21.05 329.46-20.7 329.46-3.1Q332.71-2.85 334.06-2.85ZM367.66-4.7L367.66-25 371.41-25 371.41 0 367.66 0 367.66-1.75Q363.91 0.5 360.26 0.5L360.26 0.5Q355.16 0.5 353.48-2.15 351.81-4.8 351.81-11.95L351.81-11.95 351.81-25 355.56-25 355.56-12Q355.56-6.55 356.51-4.7 357.46-2.85 360.81-2.85L360.81-2.85Q362.46-2.85 364.16-3.33 365.86-3.8 366.76-4.25L366.76-4.25 367.66-4.7ZM386.46-22.15L386.46-22.15Q381.01-22.15 381.01-18.35L381.01-18.35Q381.01-16.6 382.26-15.88 383.51-15.15 387.96-14.38 392.41-13.6 394.26-12.2 396.11-10.8 396.11-6.95 396.11-3.1 393.63-1.3 391.16 0.5 386.41 0.5L386.41 0.5Q383.31 0.5 379.11-0.2L379.11-0.2 377.61-0.45 377.81-3.7Q383.51-2.85 386.41-2.85 389.31-2.85 390.83-3.78 392.36-4.7 392.36-6.88 392.36-9.05 391.06-9.83 389.76-10.6 385.36-11.3 380.96-12 379.11-13.35 377.26-14.7 377.26-18.35 377.26-22 379.83-23.75 382.41-25.5 386.26-25.5L386.26-25.5Q389.31-25.5 393.91-24.8L393.91-24.8 395.31-24.55 395.21-21.35Q389.66-22.15 386.46-22.15ZM405.6 0L401.85 0 401.85-25 405.6-25 405.6 0ZM405.6-30.65L401.85-30.65 401.85-35 405.6-35 405.6-30.65ZM416.55-20.3L416.55 0 412.8 0 412.8-25 416.5-25 416.5-23.25Q420.55-25.5 424.25-25.5L424.25-25.5Q429.25-25.5 430.98-22.8 432.7-20.1 432.7-13.2L432.7-13.2 432.7 0 429 0 429-13.1Q429-18.3 427.98-20.23 426.95-22.15 423.6-22.15L423.6-22.15Q422-22.15 420.23-21.68 418.45-21.2 417.5-20.75L417.5-20.75 416.55-20.3ZM456.65-3.1L456.65-3.1 458.1-3.25 458.2-0.3Q452.5 0.5 448.45 0.5L448.45 0.5Q443.05 0.5 440.8-2.63 438.55-5.75 438.55-12.35L438.55-12.35Q438.55-25.5 449-25.5L449-25.5Q454.05-25.5 456.55-22.68 459.05-19.85 459.05-13.8L459.05-13.8 458.85-10.95 442.35-10.95Q442.35-6.8 443.85-4.8 445.35-2.8 449.07-2.8 452.8-2.8 456.65-3.1ZM442.3-13.95L455.3-13.95Q455.3-18.55 453.82-20.45 452.35-22.35 449.02-22.35 445.7-22.35 444.02-20.35 442.35-18.35 442.3-13.95L442.3-13.95ZM472.75-22.15L472.75-22.15Q467.3-22.15 467.3-18.35L467.3-18.35Q467.3-16.6 468.55-15.88 469.8-15.15 474.25-14.38 478.7-13.6 480.55-12.2 482.4-10.8 482.4-6.95 482.4-3.1 479.92-1.3 477.45 0.5 472.7 0.5L472.7 0.5Q469.6 0.5 465.4-0.2L465.4-0.2 463.9-0.45 464.1-3.7Q469.8-2.85 472.7-2.85 475.6-2.85 477.12-3.78 478.65-4.7 478.65-6.88 478.65-9.05 477.35-9.83 476.05-10.6 471.65-11.3 467.25-12 465.4-13.35 463.55-14.7 463.55-18.35 463.55-22 466.12-23.75 468.7-25.5 472.55-25.5L472.55-25.5Q475.6-25.5 480.2-24.8L480.2-24.8 481.6-24.55 481.5-21.35Q475.95-22.15 472.75-22.15ZM495.99-22.15L495.99-22.15Q490.54-22.15 490.54-18.35L490.54-18.35Q490.54-16.6 491.79-15.88 493.04-15.15 497.49-14.38 501.94-13.6 503.79-12.2 505.64-10.8 505.64-6.95 505.64-3.1 503.17-1.3 500.69 0.5 495.94 0.5L495.94 0.5Q492.84 0.5 488.64-0.2L488.64-0.2 487.14-0.45 487.34-3.7Q493.04-2.85 495.94-2.85 498.84-2.85 500.37-3.78 501.89-4.7 501.89-6.88 501.89-9.05 500.59-9.83 499.29-10.6 494.89-11.3 490.49-12 488.64-13.35 486.79-14.7 486.79-18.35 486.79-22 489.37-23.75 491.94-25.5 495.79-25.5L495.79-25.5Q498.84-25.5 503.44-24.8L503.44-24.8 504.84-24.55 504.74-21.35Q499.19-22.15 495.99-22.15Z" opacity="1" transform="matrix(1,0,0,1,0,0)" fill="#79c141" class="slogan-text-1" data-fill-palette-color="secondary" id="text-1"></path></svg></g></svg></g></svg></g></svg></g><g></g></svg></g><defs></defs></svg><rect width="280.52760676727365" height="247.2" fill="none" stroke="none" visibility="hidden"></rect></g></svg></g></svg>